<svg xmlns="http://www.w3.org/2000/svg" width="835" height="145" viewBox="0 0 835 145" font-family="Helvetica,Arial,sans-serif">
  <style>
    text { fill: #8b949e; font-size: 9px; }
  </style>
  <rect x="0" y="0" width="835" height="145" fill="transparent"/>

  <!-- contribution-style track -->
  <g>
    <rect x="20" y="123" width="12" height="12" rx="2" ry="2" fill="#161b22" stroke="#30363d" stroke-width="0.5"><title>2025-06-29: 0 contributions</title></rect>
    <rect x="35" y="123" width="12" height="12" rx="2" ry="2" fill="#006d32" stroke="#2ea043" stroke-width="0.5"><title>2025-07-09: 8 contributions</title></rect>
    <rect x="50" y="123" width="12" height="12" rx="2" ry="2" fill="#161b22" stroke="#30363d" stroke-width="0.5"><title>2025-07-13: 0 contributions</title></rect>
    <rect x="65" y="123" width="12" height="12" rx="2" ry="2" fill="#161b22" stroke="#30363d" stroke-width="0.5"><title>2025-07-20: 0 contributions</title></rect>
    <rect x="80" y="123" width="12" height="12" rx="2" ry="2" fill="#0e4429" stroke="#2ea043" stroke-width="0.5"><title>2025-07-29: 1 contributions</title></rect>
    <rect x="95" y="123" width="12" height="12" rx="2" ry="2" fill="#39d353" stroke="#2ea043" stroke-width="0.5"><title>2025-08-05: 41 contributions</title></rect>
    <rect x="110" y="123" width="12" height="12" rx="2" ry="2" fill="#161b22" stroke="#30363d" stroke-width="0.5"><title>2025-08-10: 0 contributions</title></rect>
    <rect x="125" y="123" width="12" height="12" rx="2" ry="2" fill="#006d32" stroke="#2ea043" stroke-width="0.5"><title>2025-08-19: 7 contributions</title></rect>
    <rect x="140" y="123" width="12" height="12" rx="2" ry="2" fill="#39d353" stroke="#2ea043" stroke-width="0.5"><title>2025-08-29: 20 contributions</title></rect>
    <rect x="155" y="123" width="12" height="12" rx="2" ry="2" fill="#26a641" stroke="#2ea043" stroke-width="0.5"><title>2025-09-06: 10 contributions</title></rect>
    <rect x="170" y="123" width="12" height="12" rx="2" ry="2" fill="#161b22" stroke="#30363d" stroke-width="0.5"><title>2025-09-07: 0 contributions</title></rect>
    <rect x="185" y="123" width="12" height="12" rx="2" ry="2" fill="#39d353" stroke="#2ea043" stroke-width="0.5"><title>2025-09-20: 17 contributions</title></rect>
    <rect x="200" y="123" width="12" height="12" rx="2" ry="2" fill="#161b22" stroke="#30363d" stroke-width="0.5"><title>2025-09-21: 0 contributions</title></rect>
    <rect x="215" y="123" width="12" height="12" rx="2" ry="2" fill="#161b22" stroke="#30363d" stroke-width="0.5"><title>2025-09-28: 0 contributions</title></rect>
    <rect x="230" y="123" width="12" height="12" rx="2" ry="2" fill="#0e4429" stroke="#2ea043" stroke-width="0.5"><title>2025-10-08: 1 contributions</title></rect>
    <rect x="245" y="123" width="12" height="12" rx="2" ry="2" fill="#161b22" stroke="#30363d" stroke-width="0.5"><title>2025-10-12: 0 contributions</title></rect>
    <rect x="260" y="123" width="12" height="12" rx="2" ry="2" fill="#161b22" stroke="#30363d" stroke-width="0.5"><title>2025-10-19: 0 contributions</title></rect>
    <rect x="275" y="123" width="12" height="12" rx="2" ry="2" fill="#26a641" stroke="#2ea043" stroke-width="0.5"><title>2025-10-27: 14 contributions</title></rect>
    <rect x="290" y="123" width="12" height="12" rx="2" ry="2" fill="#161b22" stroke="#30363d" stroke-width="0.5"><title>2025-11-02: 0 contributions</title></rect>
    <rect x="305" y="123" width="12" height="12" rx="2" ry="2" fill="#161b22" stroke="#30363d" stroke-width="0.5"><title>2025-11-09: 0 contributions</title></rect>
    <rect x="320" y="123" width="12" height="12" rx="2" ry="2" fill="#161b22" stroke="#30363d" stroke-width="0.5"><title>2025-11-16: 0 contributions</title></rect>
    <rect x="335" y="123" width="12" height="12" rx="2" ry="2" fill="#161b22" stroke="#30363d" stroke-width="0.5"><title>2025-11-23: 0 contributions</title></rect>
    <rect x="350" y="123" width="12" height="12" rx="2" ry="2" fill="#0e4429" stroke="#2ea043" stroke-width="0.5"><title>2025-12-01: 4 contributions</title></rect>
    <rect x="365" y="123" width="12" height="12" rx="2" ry="2" fill="#161b22" stroke="#30363d" stroke-width="0.5"><title>2025-12-07: 0 contributions</title></rect>
    <rect x="380" y="123" width="12" height="12" rx="2" ry="2" fill="#161b22" stroke="#30363d" stroke-width="0.5"><title>2025-12-14: 0 contributions</title></rect>
    <rect x="395" y="123" width="12" height="12" rx="2" ry="2" fill="#161b22" stroke="#30363d" stroke-width="0.5"><title>2025-12-21: 0 contributions</title></rect>
    <rect x="410" y="123" width="12" height="12" rx="2" ry="2" fill="#161b22" stroke="#30363d" stroke-width="0.5"><title>2025-12-28: 0 contributions</title></rect>
    <rect x="425" y="123" width="12" height="12" rx="2" ry="2" fill="#161b22" stroke="#30363d" stroke-width="0.5"><title>2026-01-04: 0 contributions</title></rect>
    <rect x="440" y="123" width="12" height="12" rx="2" ry="2" fill="#161b22" stroke="#30363d" stroke-width="0.5"><title>2026-01-11: 0 contributions</title></rect>
    <rect x="455" y="123" width="12" height="12" rx="2" ry="2" fill="#161b22" stroke="#30363d" stroke-width="0.5"><title>2026-01-18: 0 contributions</title></rect>
    <rect x="470" y="123" width="12" height="12" rx="2" ry="2" fill="#161b22" stroke="#30363d" stroke-width="0.5"><title>2026-01-25: 0 contributions</title></rect>
    <rect x="485" y="123" width="12" height="12" rx="2" ry="2" fill="#161b22" stroke="#30363d" stroke-width="0.5"><title>2026-02-01: 0 contributions</title></rect>
    <rect x="500" y="123" width="12" height="12" rx="2" ry="2" fill="#161b22" stroke="#30363d" stroke-width="0.5"><title>2026-02-08: 0 contributions</title></rect>
    <rect x="515" y="123" width="12" height="12" rx="2" ry="2" fill="#0e4429" stroke="#2ea043" stroke-width="0.5"><title>2026-02-17: 2 contributions</title></rect>
    <rect x="530" y="123" width="12" height="12" rx="2" ry="2" fill="#161b22" stroke="#30363d" stroke-width="0.5"><title>2026-02-22: 0 contributions</title></rect>
    <rect x="545" y="123" width="12" height="12" rx="2" ry="2" fill="#161b22" stroke="#30363d" stroke-width="0.5"><title>2026-03-01: 0 contributions</title></rect>
    <rect x="560" y="123" width="12" height="12" rx="2" ry="2" fill="#161b22" stroke="#30363d" stroke-width="0.5"><title>2026-03-08: 0 contributions</title></rect>
    <rect x="575" y="123" width="12" height="12" rx="2" ry="2" fill="#006d32" stroke="#2ea043" stroke-width="0.5"><title>2026-03-21: 8 contributions</title></rect>
    <rect x="590" y="123" width="12" height="12" rx="2" ry="2" fill="#39d353" stroke="#2ea043" stroke-width="0.5"><title>2026-03-28: 54 contributions</title></rect>
    <rect x="605" y="123" width="12" height="12" rx="2" ry="2" fill="#161b22" stroke="#30363d" stroke-width="0.5"><title>2026-03-29: 0 contributions</title></rect>
    <rect x="620" y="123" width="12" height="12" rx="2" ry="2" fill="#161b22" stroke="#30363d" stroke-width="0.5"><title>2026-04-05: 0 contributions</title></rect>
    <rect x="635" y="123" width="12" height="12" rx="2" ry="2" fill="#161b22" stroke="#30363d" stroke-width="0.5"><title>2026-04-12: 0 contributions</title></rect>
    <rect x="650" y="123" width="12" height="12" rx="2" ry="2" fill="#161b22" stroke="#30363d" stroke-width="0.5"><title>2026-04-19: 0 contributions</title></rect>
    <rect x="665" y="123" width="12" height="12" rx="2" ry="2" fill="#161b22" stroke="#30363d" stroke-width="0.5"><title>2026-04-26: 0 contributions</title></rect>
    <rect x="680" y="123" width="12" height="12" rx="2" ry="2" fill="#161b22" stroke="#30363d" stroke-width="0.5"><title>2026-05-03: 0 contributions</title></rect>
    <rect x="695" y="123" width="12" height="12" rx="2" ry="2" fill="#161b22" stroke="#30363d" stroke-width="0.5"><title>2026-05-10: 0 contributions</title></rect>
    <rect x="710" y="123" width="12" height="12" rx="2" ry="2" fill="#161b22" stroke="#30363d" stroke-width="0.5"><title>2026-05-17: 0 contributions</title></rect>
    <rect x="725" y="123" width="12" height="12" rx="2" ry="2" fill="#006d32" stroke="#2ea043" stroke-width="0.5"><title>2026-05-29: 8 contributions</title></rect>
    <rect x="740" y="123" width="12" height="12" rx="2" ry="2" fill="#006d32" stroke="#2ea043" stroke-width="0.5"><title>2026-06-04: 6 contributions</title></rect>
    <rect x="755" y="123" width="12" height="12" rx="2" ry="2" fill="#26a641" stroke="#2ea043" stroke-width="0.5"><title>2026-06-10: 10 contributions</title></rect>
    <rect x="770" y="123" width="12" height="12" rx="2" ry="2" fill="#006d32" stroke="#2ea043" stroke-width="0.5"><title>2026-06-15: 6 contributions</title></rect>
    <rect x="785" y="123" width="12" height="12" rx="2" ry="2" fill="#26a641" stroke="#2ea043" stroke-width="0.5"><title>2026-06-23: 10 contributions</title></rect>
    <rect x="800" y="123" width="12" height="12" rx="2" ry="2" fill="#39d353" stroke="#2ea043" stroke-width="0.5"><title>2026-06-30: 19 contributions</title></rect>
  </g>

  <!-- ground line -->
  <line x1="16" y1="135" x2="819" y2="135" stroke="#30363d" stroke-width="1"/>

  <!-- Mario -->
  <g transform="translate(20,135)">
    
  <g id="mario">
    <!-- cap -->
    <rect x="-6" y="-16" width="12" height="4" fill="#e4000f"/>
    <rect x="-7" y="-13" width="14" height="3" fill="#e4000f"/>
    <!-- face -->
    <rect x="-5" y="-10" width="10" height="6" fill="#fcb38a"/>
    <!-- mustache/eyes -->
    <rect x="-5" y="-7" width="10" height="2" fill="#3a2412"/>
    <!-- body (overalls) -->
    <rect x="-6" y="-4" width="12" height="6" fill="#0058f8"/>
    <rect x="-6" y="-10" width="3" height="3" fill="#e4000f"/>
    <rect x="3" y="-10" width="3" height="3" fill="#e4000f"/>
    <!-- legs -->
    <rect x="-6" y="2" width="5" height="4" fill="#3a2412"/>
    <rect x="1" y="2" width="5" height="4" fill="#3a2412"/>
  </g>
    <animateTransform attributeName="transform" type="translate"
      values="20.0,135.0;29.0,97.0;35.0,123.0;50.0,135.0;65.0,135.0;74.0,97.0;80.0,123.0;89.0,97.0;95.0,123.0;110.0,135.0;119.0,97.0;125.0,123.0;134.0,97.0;140.0,123.0;149.0,97.0;155.0,123.0;170.0,135.0;179.0,97.0;185.0,123.0;200.0,135.0;215.0,135.0;224.0,97.0;230.0,123.0;245.0,135.0;260.0,135.0;269.0,97.0;275.0,123.0;290.0,135.0;305.0,135.0;320.0,135.0;335.0,135.0;344.0,97.0;350.0,123.0;365.0,135.0;380.0,135.0;395.0,135.0;410.0,135.0;425.0,135.0;440.0,135.0;455.0,135.0;470.0,135.0;485.0,135.0;500.0,135.0;509.0,97.0;515.0,123.0;530.0,135.0;545.0,135.0;560.0,135.0;569.0,97.0;575.0,123.0;584.0,97.0;590.0,123.0;605.0,135.0;620.0,135.0;635.0,135.0;650.0,135.0;665.0,135.0;680.0,135.0;695.0,135.0;710.0,135.0;719.0,97.0;725.0,123.0;734.0,97.0;740.0,123.0;749.0,97.0;755.0,123.0;764.0,97.0;770.0,123.0;779.0,97.0;785.0,123.0;794.0,97.0;800.0,123.0;800.0,123.0"
      keyTimes="0.0000;0.0113;0.0189;0.0377;0.0566;0.0679;0.0755;0.0868;0.0943;0.1132;0.1245;0.1321;0.1434;0.1509;0.1623;0.1698;0.1887;0.2000;0.2075;0.2264;0.2453;0.2566;0.2642;0.2830;0.3019;0.3132;0.3208;0.3396;0.3585;0.3774;0.3962;0.4075;0.4151;0.4340;0.4528;0.4717;0.4906;0.5094;0.5283;0.5472;0.5660;0.5849;0.6038;0.6151;0.6226;0.6415;0.6604;0.6792;0.6906;0.6981;0.7094;0.7170;0.7358;0.7547;0.7736;0.7925;0.8113;0.8302;0.8491;0.8679;0.8792;0.8868;0.8981;0.9057;0.9170;0.9245;0.9358;0.9434;0.9547;0.9623;0.9736;0.9811;1.0000"
      dur="23.85s"
      repeatCount="indefinite"
      calcMode="linear"/>
  </g>

  <text x="20" y="144">@just-tanvi — Mario runs your contribution graph 🎮 (green = landable, dark = not)</text>
</svg>